HIERARCHY
ROOT ui
{
	 OFFSET 0 0 0
	 CHANNELS 3 XPosition YPosition Z Position
	 EndSite
	 {
	 OFFSET 0 -1 0
	 }
}
ROOT li
{
	 OFFSET 0 0 0
	 CHANNELS 3 XPosition YPosition Z Position
	 EndSite
	 {
	 OFFSET 0 -1 0
	 }
}
ROOT ul
{
	 OFFSET 0 0 0
	 CHANNELS 3 XPosition YPosition Z Position
	 EndSite
	 {
	 OFFSET 0 -1 0
	 }
}
ROOT ll
{
	 OFFSET 0 0 0
	 CHANNELS 3 XPosition YPosition Z Position
	 EndSite
	 {
	 OFFSET 0 -1 0
	 }
}
ROOT tt
{
	 OFFSET 0 0 0
	 CHANNELS 3 XPosition YPosition Z Position
	 EndSite
	 {
	 OFFSET 0 -1 0
	 }
}
ROOT tb
{
	 OFFSET 0 0 0
	 CHANNELS 3 XPosition YPosition Z Position
	 EndSite
	 {
	 OFFSET 0 -1 0
	 }
}
ROOT td
{
	 OFFSET 0 0 0
	 CHANNELS 3 XPosition YPosition Z Position
	 EndSite
	 {
	 OFFSET 0 -1 0
	 }
}
ROOT v
{
	 OFFSET 0 0 0
	 CHANNELS 3 XPosition YPosition Z Position
	 EndSite
	 {
	 OFFSET 0 -1 0
	 }
}
ROOT bn
{
	 OFFSET 0 0 0
	 CHANNELS 3 XPosition YPosition Z Position
	 EndSite
	 {
	 OFFSET 0 -1 0
	 }
}
MOTION
Frames: 24
Frame Time: 0.002
-9.064189791679382E-4	8.573470115661621E-4	0		0.4773981018066406	-2.32953369140625	0		-1.115588623046875	0.030481754302978517	0		-0.7314036254882812	-2.6425439453125	0		1.554852783203125	-0.5634034423828125	0		3.118448486328125	-0.06566299438476562	0		4.69155419921875	0.13090216064453125	0		5.65210595703125	0.09208027648925782	0		-0.28532296752929687	5.9437587890625	0		
-0.002544862985610962	0.008695692062377929	0		0.47587261962890626	-2.331640869140625	0		-1.121259521484375	0.03625469207763672	0		-0.7349086303710938	-2.645756591796875	0		1.5823187255859374	-0.5528203735351562	0		3.121654052734375	-0.06854813385009766	0		4.71200244140625	0.14593960571289064	0		5.64936669921875	0.08081964874267578	0		-0.30284722900390626	5.9367890625	0		
-4.323639869689941E-4	4.885700047016143E-4	0		0.4914068603515625	-2.328986572265625	0		-1.1250906982421875	0.03201021957397461	0		-0.7034878540039062	-2.6534716796875	0		1.5744510498046875	-0.563703125	0		3.097792724609375	-0.07502428436279297	0		4.6930283203125	0.1335684356689453	0		5.64244580078125	0.08702677917480468	0		-0.3373493957519531	5.93207666015625	0		
-0.005156278133392334	0.00439656400680542	0		0.43895806884765626	-2.323324951171875	0		-1.124876953125	0.03172242927551269	0		-0.7409901123046875	-2.6541591796875	0		1.57964208984375	-0.5697671508789063	0		3.108944091796875	-0.08000885772705078	0		4.71321435546875	0.1326271514892578	0		5.64261376953125	0.08779220581054688	0		-0.3377825622558594	5.93187548828125	0		
-1.324199978262186E-5	1.7462599277496337E-4	0		0.4752430725097656	-2.33494775390625	0		-1.20165576171875	0.033568065643310545	0		-0.740507080078125	-2.654386962890625	0		1.54683544921875	-0.574271240234375	0		3.093329833984375	-0.06759873962402344	0		4.6934189453125	0.13426622009277345	0		5.6398154296875	0.07134973907470703	0		-0.33722348022460935	5.93067578125	0		
1.7231899499893188E-4	4.062199965119362E-5	0		0.45173867797851563	-2.329689453125	0		-1.1905035400390624	0.031154888153076172	0		-0.727155517578125	-2.661781982421875	0		1.5891033935546874	-0.5728528442382812	0		3.122519287109375	-0.06783724212646484	0		4.70767578125	0.1404041748046875	0		5.64876513671875	0.11330117797851562	0		-0.33763656616210935	5.9305078125	0		
-0.004601381778717041	0.003993169069290161	0		0.47809771728515627	-2.3321357421875	0		-1.1202735595703126	0.03492341995239258	0		-0.7396324462890626	-2.65478466796875	0		1.5473023681640625	-0.5742203979492188	0		3.111766845703125	-0.06250222015380859	0		4.71293017578125	0.1476613311767578	0		5.64597216796875	0.101998291015625	0		-0.3039639282226563	5.93487109375	0		
4.926050007343292E-4	-1.8087099492549897E-4	0		0.47641363525390623	-2.335167724609375	0		-1.124181396484375	0.030778192520141603	0		-0.7083480224609375	-2.662392333984375	0		1.5864866943359375	-0.5757395629882812	0		3.125922607421875	-0.06252817153930663	0		4.71306884765625	0.14797589111328124	0		5.64609130859375	0.10266921234130859	0		-0.33840582275390624	5.93022412109375	0		
-0.004315715789794922	0.0038008949756622315	0		0.49179409790039064	-2.33142919921875	0		-1.124049072265625	0.03059794044494629	0		-0.7460060424804688	-2.66300244140625	0		1.5446444091796876	-0.577105712890625	0		3.0939951171875	-0.06690930938720703	0		4.709107421875	0.14232957458496093	0		5.6432734375	0.0912881088256836	0		-0.33974136352539064	5.9311220703125	0		
-0.004197275161743164	0.003725688934326172	0		0.45107659912109377	-2.33189208984375	0		-1.113961669921875	0.028299161911010742	0		-0.6988197631835937	-2.67279150390625	0		1.5837742919921876	-0.5796124877929687	0		3.108117431640625	-0.06695001220703126	0		4.69330126953125	0.14882958984375	0		5.65046923828125	0.08644014739990234	0		-0.32196826171875	5.9377685546875	0		
0.008821526527404784	-0.0025186820030212403	0		0.4793349609375	-2.33231591796875	0		-1.18578271484375	0.034165912628173825	0		-0.7294489135742187	-2.666469482421875	0		1.554101806640625	-0.5661513671875	0		3.139334716796875	-0.05923755645751953	0		4.70238037109375	0.14795684814453125	0		5.65347509765625	0.09898902893066407	0		-0.3222639465332031	5.93768359375	0		
9.412260055541992E-4	-4.607230126857758E-4	0		0.47956634521484376	-2.332340576171875	0		-1.119686279296875	0.034123191833496096	0		-0.6633289184570312	-2.676483642578125	0		1.5870985107421876	-0.5755693359375	0		3.11239013671875	-0.061726470947265626	0		4.70347607421875	0.14917234802246093	0		5.64644482421875	0.10490438842773438	0		-0.30557382202148436	5.93437451171875	0		
-0.003924040079116821	0.0035618469715118406	0		0.4757004089355469	-2.3373056640625	0		-1.123664306640625	0.030073043823242187	0		-0.74493359375	-2.663430908203125	0		1.5841529541015624	-0.5794893188476562	0		3.1084033203125	-0.06655131530761718	0		4.7086572265625	0.1573062744140625	0		5.64358544921875	0.09332123565673828	0		-0.338904541015625	5.92776953125	0		
0.006017866134643554	-0.0056168799400329586	0		0.47384866333007813	-2.339297119140625	0		-1.123598388671875	0.029979568481445312	0		-0.6679985961914062	-2.68256787109375	0		1.581192138671875	-0.5834154052734375	0		3.09447509765625	-0.06625526428222656	0		4.6936083984375	0.14969110107421876	0		5.64363916015625	0.09369386291503906	0		-0.3400845031738281	5.92972607421875	0		
-0.0029111940860748293	-0.004531353950500488	0		0.4500689697265625	-2.33398681640625	0		-1.189551025390625	0.029804874420166015	0		-0.7377465209960937	-2.675670166015625	0		1.545357421875	-0.5768960571289062	0		3.123531005859375	-0.06656975555419922	0		4.70365771484375	0.1497017822265625	0		5.65078662109375	0.08858084106445313	0		-0.33929205322265626	5.92766064453125	0		
-0.0037558460235595703	0.0034443199634552	0		0.47817636108398437	-2.335393310546875	0		-1.1895067138671875	0.029727663040161133	0		-0.7006284790039062	-2.677239990234375	0		1.5484630126953125	-0.5739227294921875	0		3.103676513671875	-0.05922795867919922	0		4.69289111328125	0.16397248840332032	0		5.653744140625	0.10085302734375	0		-0.30438079833984377	5.932130859375	0		
0.0012236889600753785	-6.608899831771851E-4	0		0.4523200988769531	-2.332060791015625	0		-1.195403564453125	0.03473918533325195	0		-0.7375015258789063	-2.675789794921875	0		1.54547314453125	-0.576875	0		3.12668359375	-0.06149312210083008	0		4.7137275390625	0.14978028869628907	0		5.64666943359375	0.1064841079711914	0		-0.3385907592773437	5.9265517578125	0		
0.001249101996421814	-6.985520124435425E-4	0		0.4763280029296875	-2.337416015625	0		-1.1193861083984376	0.033634586334228514	0		-0.7044866333007812	-2.681295166015625	0		1.542457275390625	-0.5808360595703125	0		3.11577978515625	-0.05630952453613281	0		4.69294287109375	0.16413601684570311	0		5.64668994140625	0.10663742065429688	0		-0.33968670654296873	5.92752001953125	0		
-0.007719450950622558	3.849169909954071E-4	0		0.4743603210449219	-2.33941943359375	0		-1.123424072265625	0.029629829406738282	0		-0.7074752807617187	-2.685305908203125	0		1.5784130859375	-0.5863387451171875	0		3.1138388671875	-0.053265216827392575	0		4.70887353515625	0.15796395874023436	0		5.64378369140625	0.09472926330566406	0		-0.3056987915039063	5.93300927734375	0		
0.0062071199417114255	-0.005847713947296143	0		0.4744032592773437	-2.33945458984375	0		-1.1894222412109374	0.029472705841064453	0		-0.72947998046875	-2.689057373046875	0		1.5235181884765625	-0.5796083984375	0		3.09774169921875	-0.06104400253295898	0		4.6978544921875	0.15613897705078125	0		5.65089501953125	0.08936669921875	0		-0.3388655700683594	5.9264140625	0		
0.004320527076721191	0.0021337289810180664	0		0.4545569763183594	-2.330222900390625	0		-1.18131005859375	0.037304969787597654	0		-0.69143701171875	-2.688628662109375	0		1.5455672607421875	-0.5769375	0		3.13387939453125	-0.051547805786132814	0		4.7119375	0.16195269775390625	0		5.6538203125	0.10140592956542968	0		-0.28972500610351565	5.94069580078125	0		
-0.003665616035461426	0.003194237947463989	0		0.5044744567871093	-2.337948486328125	0		-1.1193575439453125	0.03340265274047852	0		-0.7392759399414063	-2.678029296875	0		1.5455712890625	-0.5769739990234375	0		3.087938232421875	-0.04694545745849609	0		4.71704443359375	0.16987181091308592	0		5.6467177734375	0.1068216781616211	0		-0.33897137451171877	5.92631396484375	0		
0.0062063589096069335	-0.005993081092834473	0		0.47445758056640625	-2.3395888671875	0		-1.1193621826171876	0.03334498596191406	0		-0.6964885864257813	-2.694669189453125	0		1.578444091796875	-0.5864666748046875	0		3.09886474609375	-0.05213084030151367	0		4.70887646484375	0.15795433044433593	0		5.64379443359375	0.09476669311523438	0		-0.33999267578125	5.92727392578125	0		
-0.007718732833862305	1.4164799451828002E-4	0		0.4983860168457031	-2.344969482421875	0		-1.123424560546875	0.02934111785888672	0		-0.74434814453125	-2.684073974609375	0		1.5394549560546875	-0.584986328125	0		3.097734375	-0.06116267395019531	0		4.7029501953125	0.16399395751953125	0		5.6437890625	0.09469905853271485	0		-0.321088134765625	5.92195947265625	0		
